<svg version="1.1" id="space-shuttle-loading" xmlns="http://www.w3.org/2000/svg" xmlns:xlink="http://www.w3.org/1999/xlink" x="0px" y="0px" viewBox="111.9 349.1 335 185.9"
            xml:space="preserve">
            <style type="text/css">
                path {
                    fill: transparent;
                    stroke: hsl(0 100% 100%);
                    stroke-width: 5;
                    stroke-dasharray: 1420 1420;
                    stroke-dashoffset: -1420;
                    animation: stroke 1s infinite alternate ease-out;
                }

                @keyframes stroke {
                    to {
                        stroke-dashoffset: 0;
                    }
                }
            </style>
            <path id="XMLID_49_" class="st0" d="M336.6,496.2l5.3-13.2c0,0,13.5-1.5,18.8-12.1s-8.4-24.3-21-31s-24.4-6.4-24.4-6.4l23.3-75.5
	c0,0,1.5-3.4-1.3-4.9c-2.8-1.5-7-3.2-7-3.2s-4.7-2.7-7.8,3.2c-3.2,5.8-47,81.8-47,81.8L173,394.8c0,0-15.6-4.4-23.2,2.6
	c5.2-2,14.9-3.7,30.8,4.2l9.7,9.8l-8.7,4c0,0-11.5-7.7-29.5-7.5c-10.2,0.3-17.2,4.3-17.2,4.3l-15.7,11.7c0,0-4.2,4.2-5.8,11.3
	c-1.7,7.2-2.8,12.8,1,17.2c3.8,4.3,47.7,40.5,47.7,40.5l-35.7,7.8c0,0-7.7,1.5-5.3,4.3c2.3,2.8,7.6,10.5,7.6,10.5l127.5,15.7
	l92.2,3.7l98.3-13.2l-3.9-6.8c0,0-1.9-3.6-6.9-4.6S287.3,490,287.3,490s-13-2.3-21.3-5.5s-73.2-25.3-73.2-25.3l-0.2-26h-38
	c0,0-2.8-14.8-18.8-14.2c-7.7,0.3-10,1.8-14.4,4.4"/>
        </svg> 