<?xml version="1.0" encoding="utf-8"?>
<svg width="11.000015px" height="11.000015px" viewBox="0 0 11.000015 11.000015" version="1.1" xmlns:xlink="http://www.w3.org/1999/xlink" xmlns="http://www.w3.org/2000/svg">
  <path d="M7.58501 5.50001L10.7122 2.37281C11.096 1.98908 11.096 1.36689 10.7122 0.982826L10.0172 0.287819C9.63342 -0.0959396 9.01126 -0.0959396 8.62721 0.287819L5.5 3.41502L2.37282 0.287819C1.98909 -0.0959396 1.3669 -0.0959396 0.982834 0.287819L0.287811 0.982826C-0.0959473 1.36658 -0.0959473 1.98875 0.287811 2.37281L3.41501 5.50001L0.287811 8.6272C-0.0959473 9.01093 -0.0959473 9.63313 0.287811 10.0172L0.982834 10.7122C1.36658 11.096 1.98909 11.096 2.37282 10.7122L5.5 7.585L8.62721 10.7122C9.01093 11.096 9.63342 11.096 10.0172 10.7122L10.7122 10.0172C11.096 9.63343 11.096 9.01127 10.7122 8.6272L7.58501 5.50001Z" id="ï€" fill="#000000" fill-rule="evenodd" stroke="none" />
</svg>