<?xml version="1.0" encoding="utf-8"?>
<!-- Generator: Adobe Illustrator 19.0.0, SVG Export Plug-In . SVG Version: 6.00 Build 0)  -->
<svg version="1.1" id="Calque_1" xmlns="http://www.w3.org/2000/svg" xmlns:xlink="http://www.w3.org/1999/xlink" x="0px" y="0px"
	 viewBox="118 100.9 448 640" style="enable-background:new 118 100.9 448 640;" xml:space="preserve">
<path d="M294.2,148.3c-15.4,32.9-24.2,76.8-24.2,120.6v285.7c-6.6,5-12,10.6-16,16.7V364.9c-30.3,146.8-136,156.6-136,280v0h128v16
	H118c0,26.5,28.7,48,64,48h64c0,23.2,10,32,24,32h40c14,0,24-8.8,24-32h16c0,23.2,10,32,24,32h40c14,0,24-8.8,24-32h64
	c35.3,0,64-21.5,64-48H438v-16h128v0c0-123.4-105.7-133.2-136-280v206.4c-4-6.1-9.4-11.8-16-16.7V268.9c0-43.8-8.8-87.7-24.2-120.6
	c-13.9-29.7-31.8-47.4-47.8-47.4S308.2,118.6,294.2,148.3z M382,252.9c0,4.4-3.6,8-8,8l-64,0c-4.4,0-8-3.6-8-8
	C302,221,382,220.9,382,252.9z"/>
</svg>
